<svg width="896" height="816" viewBox="0 0 896 816" fill="none" xmlns="http://www.w3.org/2000/svg">
<path d="M40 52C40 45.3726 45.3726 40 52 40H844C850.627 40 856 45.3726 856 52V764C856 770.627 850.627 776 844 776H52C45.3726 776 40 770.627 40 764V52Z" fill="#FBFBFB"/>
<path d="M52 42H844V38H52V42ZM854 52V764H858V52H854ZM844 774H52V778H844V774ZM42 764V52H38V764H42ZM52 774C46.4772 774 42 769.523 42 764H38C38 771.732 44.268 778 52 778V774ZM854 764C854 769.523 849.523 774 844 774V778C851.732 778 858 771.732 858 764H854ZM844 42C849.523 42 854 46.4772 854 52H858C858 44.268 851.732 38 844 38V42ZM52 38C44.268 38 38 44.268 38 52H42C42 46.4772 46.4772 42 52 42V38Z" fill="#E6E6E6"/>
<circle cx="234" cy="208" r="88" fill="#BDE3FF" stroke="#22B4FF" stroke-width="4" stroke-linecap="round"/>
<path d="M205.763 205.222H203.104C203.002 204.653 202.812 204.153 202.533 203.722C202.255 203.29 201.914 202.923 201.51 202.622C201.107 202.321 200.655 202.094 200.155 201.94C199.661 201.787 199.135 201.71 198.579 201.71C197.573 201.71 196.672 201.963 195.877 202.469C195.087 202.974 194.462 203.716 194.002 204.693C193.547 205.67 193.32 206.864 193.32 208.273C193.32 209.693 193.547 210.892 194.002 211.869C194.462 212.847 195.09 213.585 195.885 214.085C196.681 214.585 197.576 214.835 198.57 214.835C199.121 214.835 199.644 214.761 200.138 214.614C200.638 214.46 201.09 214.236 201.493 213.94C201.897 213.645 202.238 213.284 202.516 212.858C202.8 212.426 202.996 211.932 203.104 211.375L205.763 211.384C205.621 212.241 205.346 213.031 204.937 213.753C204.533 214.469 204.013 215.088 203.377 215.611C202.746 216.128 202.025 216.528 201.212 216.812C200.4 217.097 199.513 217.239 198.553 217.239C197.042 217.239 195.695 216.881 194.513 216.165C193.331 215.443 192.4 214.412 191.718 213.071C191.042 211.73 190.704 210.131 190.704 208.273C190.704 206.409 191.044 204.81 191.726 203.474C192.408 202.134 193.34 201.105 194.522 200.389C195.704 199.668 197.047 199.307 198.553 199.307C199.479 199.307 200.343 199.44 201.144 199.707C201.951 199.969 202.675 200.355 203.317 200.866C203.959 201.372 204.491 201.991 204.911 202.724C205.331 203.452 205.616 204.284 205.763 205.222ZM208.254 217V203.909H210.717V205.989H210.853C211.092 205.284 211.512 204.73 212.115 204.327C212.723 203.918 213.41 203.713 214.177 203.713C214.336 203.713 214.524 203.719 214.74 203.73C214.961 203.741 215.135 203.756 215.26 203.773V206.21C215.157 206.182 214.976 206.151 214.714 206.116C214.453 206.077 214.191 206.057 213.93 206.057C213.328 206.057 212.791 206.185 212.319 206.44C211.853 206.69 211.484 207.04 211.211 207.489C210.939 207.932 210.802 208.437 210.802 209.006V217H208.254ZM222.182 217.264C220.892 217.264 219.782 216.989 218.85 216.438C217.924 215.881 217.208 215.099 216.702 214.094C216.202 213.082 215.952 211.898 215.952 210.54C215.952 209.199 216.202 208.017 216.702 206.994C217.208 205.972 217.912 205.173 218.816 204.599C219.725 204.026 220.787 203.739 222.003 203.739C222.742 203.739 223.458 203.861 224.151 204.105C224.844 204.349 225.466 204.733 226.017 205.256C226.569 205.778 227.003 206.457 227.321 207.293C227.64 208.122 227.799 209.131 227.799 210.318V211.222H217.392V209.312H225.302C225.302 208.642 225.165 208.048 224.892 207.531C224.62 207.009 224.236 206.597 223.742 206.295C223.253 205.994 222.679 205.844 222.02 205.844C221.304 205.844 220.679 206.02 220.145 206.372C219.617 206.719 219.208 207.173 218.918 207.736C218.634 208.293 218.492 208.898 218.492 209.551V211.043C218.492 211.918 218.645 212.662 218.952 213.276C219.265 213.889 219.699 214.358 220.256 214.682C220.813 215 221.463 215.159 222.208 215.159C222.691 215.159 223.131 215.091 223.529 214.955C223.927 214.812 224.27 214.602 224.56 214.324C224.85 214.045 225.071 213.702 225.225 213.293L227.637 213.727C227.444 214.437 227.097 215.06 226.597 215.594C226.103 216.122 225.481 216.534 224.731 216.83C223.986 217.119 223.137 217.264 222.182 217.264ZM233.98 217.29C233.15 217.29 232.4 217.136 231.73 216.83C231.059 216.517 230.528 216.065 230.136 215.474C229.75 214.884 229.556 214.159 229.556 213.301C229.556 212.562 229.699 211.955 229.983 211.477C230.267 211 230.65 210.622 231.133 210.344C231.616 210.065 232.156 209.855 232.752 209.713C233.349 209.571 233.957 209.463 234.576 209.389C235.36 209.298 235.997 209.224 236.485 209.168C236.974 209.105 237.329 209.006 237.551 208.869C237.772 208.733 237.883 208.511 237.883 208.205V208.145C237.883 207.401 237.673 206.824 237.252 206.415C236.838 206.006 236.218 205.801 235.395 205.801C234.537 205.801 233.86 205.991 233.366 206.372C232.877 206.747 232.539 207.165 232.352 207.625L229.957 207.08C230.241 206.284 230.656 205.642 231.201 205.153C231.752 204.659 232.386 204.301 233.102 204.08C233.818 203.852 234.571 203.739 235.36 203.739C235.883 203.739 236.437 203.801 237.022 203.926C237.613 204.045 238.164 204.267 238.676 204.591C239.193 204.915 239.616 205.378 239.946 205.98C240.275 206.577 240.44 207.352 240.44 208.307V217H237.951V215.21H237.849C237.684 215.54 237.437 215.864 237.108 216.182C236.778 216.5 236.355 216.764 235.838 216.974C235.321 217.185 234.701 217.29 233.98 217.29ZM234.534 215.244C235.238 215.244 235.841 215.105 236.341 214.827C236.846 214.548 237.23 214.185 237.491 213.736C237.758 213.281 237.892 212.795 237.892 212.278V210.591C237.801 210.682 237.625 210.767 237.363 210.847C237.108 210.92 236.815 210.986 236.485 211.043C236.156 211.094 235.835 211.142 235.522 211.188C235.21 211.227 234.949 211.261 234.738 211.29C234.244 211.352 233.792 211.457 233.383 211.605C232.98 211.753 232.656 211.966 232.412 212.244C232.173 212.517 232.054 212.881 232.054 213.335C232.054 213.966 232.287 214.443 232.752 214.767C233.218 215.085 233.812 215.244 234.534 215.244ZM249.489 203.909V205.955H242.338V203.909H249.489ZM244.256 200.773H246.804V213.156C246.804 213.651 246.878 214.023 247.026 214.273C247.174 214.517 247.364 214.685 247.597 214.776C247.836 214.861 248.094 214.903 248.372 214.903C248.577 214.903 248.756 214.889 248.909 214.861C249.063 214.832 249.182 214.81 249.267 214.793L249.728 216.898C249.58 216.955 249.37 217.011 249.097 217.068C248.824 217.131 248.483 217.165 248.074 217.17C247.404 217.182 246.779 217.062 246.199 216.812C245.62 216.562 245.151 216.176 244.793 215.653C244.435 215.131 244.256 214.474 244.256 213.685V200.773ZM257.353 217.264C256.063 217.264 254.953 216.989 254.021 216.438C253.095 215.881 252.379 215.099 251.873 214.094C251.373 213.082 251.123 211.898 251.123 210.54C251.123 209.199 251.373 208.017 251.873 206.994C252.379 205.972 253.083 205.173 253.987 204.599C254.896 204.026 255.958 203.739 257.174 203.739C257.913 203.739 258.629 203.861 259.322 204.105C260.015 204.349 260.637 204.733 261.188 205.256C261.74 205.778 262.174 206.457 262.492 207.293C262.811 208.122 262.97 209.131 262.97 210.318V211.222H252.563V209.312H260.473C260.473 208.642 260.336 208.048 260.063 207.531C259.791 207.009 259.407 206.597 258.913 206.295C258.424 205.994 257.85 205.844 257.191 205.844C256.475 205.844 255.85 206.02 255.316 206.372C254.788 206.719 254.379 207.173 254.089 207.736C253.805 208.293 253.663 208.898 253.663 209.551V211.043C253.663 211.918 253.816 212.662 254.123 213.276C254.436 213.889 254.87 214.358 255.427 214.682C255.984 215 256.635 215.159 257.379 215.159C257.862 215.159 258.302 215.091 258.7 214.955C259.098 214.812 259.441 214.602 259.731 214.324C260.021 214.045 260.242 213.702 260.396 213.293L262.808 213.727C262.615 214.437 262.268 215.06 261.768 215.594C261.274 216.122 260.652 216.534 259.902 216.83C259.157 217.119 258.308 217.264 257.353 217.264ZM270.242 217.256C269.185 217.256 268.242 216.986 267.412 216.446C266.588 215.901 265.941 215.125 265.469 214.119C265.003 213.108 264.77 211.895 264.77 210.48C264.77 209.065 265.006 207.855 265.478 206.849C265.955 205.844 266.608 205.074 267.438 204.54C268.267 204.006 269.208 203.739 270.259 203.739C271.071 203.739 271.725 203.875 272.219 204.148C272.719 204.415 273.105 204.727 273.378 205.085C273.657 205.443 273.872 205.759 274.026 206.031H274.179V199.545H276.728V217H274.239V214.963H274.026C273.872 215.241 273.651 215.56 273.361 215.918C273.077 216.276 272.685 216.588 272.185 216.855C271.685 217.122 271.037 217.256 270.242 217.256ZM270.804 215.082C271.537 215.082 272.157 214.889 272.662 214.503C273.174 214.111 273.56 213.568 273.821 212.875C274.088 212.182 274.222 211.375 274.222 210.455C274.222 209.545 274.091 208.75 273.83 208.068C273.568 207.386 273.185 206.855 272.679 206.474C272.174 206.094 271.549 205.903 270.804 205.903C270.037 205.903 269.398 206.102 268.887 206.5C268.375 206.898 267.989 207.44 267.728 208.128C267.472 208.815 267.344 209.591 267.344 210.455C267.344 211.33 267.475 212.116 267.736 212.815C267.997 213.514 268.384 214.068 268.895 214.477C269.412 214.881 270.049 215.082 270.804 215.082Z" fill="black" fill-opacity="0.8"/>
<path d="M345.757 356.243L404.243 297.757C405.368 296.632 406.894 296 408.485 296H497.515C499.106 296 500.632 296.632 501.757 297.757L560.243 356.243C561.368 357.368 562 358.894 562 360.485V449.515C562 451.106 561.368 452.632 560.243 453.757L501.757 512.243C500.632 513.368 499.106 514 497.515 514H408.485C406.894 514 405.368 513.368 404.243 512.243L345.757 453.757C344.632 452.632 344 451.106 344 449.515V360.485C344 358.894 344.632 357.368 345.757 356.243Z" fill="white" stroke="#E3E3E3" stroke-width="4" stroke-linecap="round"/>
<path d="M434.105 405.455C434.105 408.561 433.537 411.231 432.4 413.466C431.264 415.691 429.706 417.405 427.727 418.608C425.757 419.801 423.518 420.398 421.008 420.398C418.489 420.398 416.24 419.801 414.261 418.608C412.291 417.405 410.738 415.687 409.602 413.452C408.466 411.217 407.897 408.551 407.897 405.455C407.897 402.348 408.466 399.683 409.602 397.457C410.738 395.223 412.291 393.509 414.261 392.315C416.24 391.113 418.489 390.511 421.008 390.511C423.518 390.511 425.757 391.113 427.727 392.315C429.706 393.509 431.264 395.223 432.4 397.457C433.537 399.683 434.105 402.348 434.105 405.455ZM429.758 405.455C429.758 403.087 429.375 401.094 428.608 399.474C427.85 397.846 426.808 396.615 425.483 395.781C424.166 394.938 422.675 394.517 421.008 394.517C419.332 394.517 417.836 394.938 416.52 395.781C415.203 396.615 414.162 397.846 413.395 399.474C412.637 401.094 412.258 403.087 412.258 405.455C412.258 407.822 412.637 409.82 413.395 411.449C414.162 413.068 415.203 414.299 416.52 415.142C417.836 415.975 419.332 416.392 421.008 416.392C422.675 416.392 424.166 415.975 425.483 415.142C426.808 414.299 427.85 413.068 428.608 411.449C429.375 409.82 429.758 407.822 429.758 405.455ZM448.74 398.182V401.591H436.41V398.182H448.74ZM439.791 420V395.653C439.791 394.29 440.089 393.158 440.686 392.259C441.282 391.349 442.073 390.672 443.058 390.227C444.043 389.773 445.113 389.545 446.268 389.545C447.12 389.545 447.85 389.616 448.456 389.759C449.062 389.891 449.512 390.014 449.805 390.128L448.811 393.565C448.612 393.509 448.356 393.442 448.044 393.366C447.731 393.281 447.352 393.239 446.907 393.239C445.875 393.239 445.137 393.494 444.691 394.006C444.256 394.517 444.038 395.256 444.038 396.222V420H439.791ZM462.625 398.182V401.591H450.296V398.182H462.625ZM453.676 420V395.653C453.676 394.29 453.975 393.158 454.571 392.259C455.168 391.349 455.959 390.672 456.944 390.227C457.928 389.773 458.998 389.545 460.154 389.545C461.006 389.545 461.735 389.616 462.341 389.759C462.947 389.891 463.397 390.014 463.691 390.128L462.696 393.565C462.498 393.509 462.242 393.442 461.929 393.366C461.617 393.281 461.238 393.239 460.793 393.239C459.761 393.239 459.022 393.494 458.577 394.006C458.141 394.517 457.924 395.256 457.924 396.222V420H453.676ZM474.671 420.44C472.522 420.44 470.671 419.981 469.118 419.062C467.574 418.134 466.381 416.832 465.538 415.156C464.705 413.471 464.288 411.496 464.288 409.233C464.288 406.998 464.705 405.028 465.538 403.324C466.381 401.619 467.555 400.289 469.061 399.332C470.576 398.376 472.347 397.898 474.373 397.898C475.604 397.898 476.797 398.101 477.953 398.509C479.108 398.916 480.145 399.555 481.064 400.426C481.982 401.297 482.707 402.429 483.237 403.821C483.767 405.204 484.032 406.884 484.032 408.864V410.369H466.689V407.188H479.87C479.87 406.07 479.643 405.08 479.189 404.219C478.734 403.348 478.095 402.661 477.271 402.159C476.457 401.657 475.5 401.406 474.402 401.406C473.208 401.406 472.167 401.7 471.277 402.287C470.396 402.865 469.714 403.622 469.231 404.56C468.758 405.488 468.521 406.496 468.521 407.585V410.071C468.521 411.529 468.777 412.77 469.288 413.793C469.809 414.815 470.533 415.597 471.461 416.136C472.389 416.667 473.474 416.932 474.714 416.932C475.519 416.932 476.253 416.818 476.916 416.591C477.579 416.354 478.152 416.004 478.635 415.54C479.118 415.076 479.487 414.503 479.743 413.821L483.762 414.545C483.44 415.729 482.863 416.766 482.029 417.656C481.206 418.537 480.169 419.223 478.919 419.716C477.678 420.199 476.262 420.44 474.671 420.44ZM487.865 420V398.182H491.97V401.648H492.197C492.595 400.473 493.296 399.55 494.299 398.878C495.313 398.196 496.458 397.855 497.737 397.855C498.002 397.855 498.314 397.865 498.674 397.884C499.044 397.902 499.332 397.926 499.541 397.955V402.017C499.37 401.97 499.067 401.918 498.632 401.861C498.196 401.795 497.76 401.761 497.325 401.761C496.321 401.761 495.426 401.974 494.64 402.401C493.864 402.817 493.248 403.4 492.794 404.148C492.339 404.886 492.112 405.729 492.112 406.676V420H487.865Z" fill="black" fill-opacity="0.8"/>
<circle cx="453" cy="154" r="88" fill="#AFF4C6" stroke="#65BF8C" stroke-width="4" stroke-linecap="round"/>
<path d="M402.676 163H399.88L406.161 145.545H409.204L415.485 163H412.69L407.755 148.716H407.619L402.676 163ZM403.144 156.165H412.212V158.381H403.144V156.165ZM422.649 163.264C421.381 163.264 420.291 162.977 419.376 162.403C418.467 161.824 417.768 161.026 417.279 160.009C416.791 158.991 416.546 157.827 416.546 156.514C416.546 155.185 416.796 154.011 417.296 152.994C417.796 151.972 418.501 151.173 419.41 150.599C420.319 150.026 421.39 149.739 422.623 149.739C423.617 149.739 424.504 149.923 425.282 150.293C426.06 150.656 426.688 151.168 427.166 151.827C427.649 152.486 427.935 153.256 428.026 154.136H425.546C425.41 153.523 425.097 152.994 424.609 152.551C424.126 152.108 423.478 151.886 422.666 151.886C421.955 151.886 421.333 152.074 420.799 152.449C420.271 152.818 419.859 153.347 419.563 154.034C419.268 154.716 419.12 155.523 419.12 156.455C419.12 157.409 419.265 158.233 419.555 158.926C419.845 159.619 420.254 160.156 420.782 160.537C421.316 160.918 421.944 161.108 422.666 161.108C423.149 161.108 423.586 161.02 423.978 160.844C424.376 160.662 424.708 160.403 424.975 160.068C425.248 159.733 425.438 159.33 425.546 158.858H428.026C427.935 159.705 427.66 160.46 427.2 161.125C426.739 161.79 426.123 162.312 425.35 162.693C424.583 163.074 423.683 163.264 422.649 163.264ZM435.81 163.264C434.543 163.264 433.452 162.977 432.537 162.403C431.628 161.824 430.929 161.026 430.44 160.009C429.952 158.991 429.707 157.827 429.707 156.514C429.707 155.185 429.957 154.011 430.457 152.994C430.957 151.972 431.662 151.173 432.571 150.599C433.48 150.026 434.551 149.739 435.784 149.739C436.778 149.739 437.665 149.923 438.443 150.293C439.222 150.656 439.849 151.168 440.327 151.827C440.81 152.486 441.097 153.256 441.188 154.136H438.707C438.571 153.523 438.259 152.994 437.77 152.551C437.287 152.108 436.639 151.886 435.827 151.886C435.117 151.886 434.494 152.074 433.96 152.449C433.432 152.818 433.02 153.347 432.724 154.034C432.429 154.716 432.281 155.523 432.281 156.455C432.281 157.409 432.426 158.233 432.716 158.926C433.006 159.619 433.415 160.156 433.943 160.537C434.477 160.918 435.105 161.108 435.827 161.108C436.31 161.108 436.747 161.02 437.139 160.844C437.537 160.662 437.869 160.403 438.136 160.068C438.409 159.733 438.599 159.33 438.707 158.858H441.188C441.097 159.705 440.821 160.46 440.361 161.125C439.901 161.79 439.284 162.312 438.511 162.693C437.744 163.074 436.844 163.264 435.81 163.264ZM449.099 163.264C447.809 163.264 446.698 162.989 445.766 162.438C444.84 161.881 444.124 161.099 443.619 160.094C443.119 159.082 442.869 157.898 442.869 156.54C442.869 155.199 443.119 154.017 443.619 152.994C444.124 151.972 444.829 151.173 445.732 150.599C446.641 150.026 447.704 149.739 448.92 149.739C449.658 149.739 450.374 149.861 451.067 150.105C451.761 150.349 452.383 150.733 452.934 151.256C453.485 151.778 453.92 152.457 454.238 153.293C454.556 154.122 454.715 155.131 454.715 156.318V157.222H444.309V155.312H452.218C452.218 154.642 452.082 154.048 451.809 153.531C451.536 153.009 451.153 152.597 450.658 152.295C450.17 151.994 449.596 151.844 448.937 151.844C448.221 151.844 447.596 152.02 447.062 152.372C446.533 152.719 446.124 153.173 445.835 153.736C445.55 154.293 445.408 154.898 445.408 155.551V157.043C445.408 157.918 445.562 158.662 445.869 159.276C446.181 159.889 446.616 160.358 447.173 160.682C447.729 161 448.38 161.159 449.124 161.159C449.607 161.159 450.048 161.091 450.445 160.955C450.843 160.812 451.187 160.602 451.477 160.324C451.766 160.045 451.988 159.702 452.141 159.293L454.553 159.727C454.36 160.437 454.014 161.06 453.514 161.594C453.019 162.122 452.397 162.534 451.647 162.83C450.903 163.119 450.053 163.264 449.099 163.264ZM457.087 167.909V149.909H459.575V152.031H459.788C459.936 151.759 460.149 151.443 460.428 151.085C460.706 150.727 461.092 150.415 461.587 150.148C462.081 149.875 462.734 149.739 463.547 149.739C464.604 149.739 465.547 150.006 466.376 150.54C467.206 151.074 467.857 151.844 468.328 152.849C468.805 153.855 469.044 155.065 469.044 156.48C469.044 157.895 468.808 159.108 468.337 160.119C467.865 161.125 467.217 161.901 466.393 162.446C465.57 162.986 464.629 163.256 463.572 163.256C462.777 163.256 462.126 163.122 461.621 162.855C461.121 162.588 460.729 162.276 460.445 161.918C460.16 161.56 459.942 161.241 459.788 160.963H459.635V167.909H457.087ZM459.584 156.455C459.584 157.375 459.717 158.182 459.984 158.875C460.251 159.568 460.638 160.111 461.143 160.503C461.649 160.889 462.268 161.082 463.001 161.082C463.763 161.082 464.399 160.881 464.91 160.477C465.422 160.068 465.808 159.514 466.07 158.815C466.337 158.116 466.47 157.33 466.47 156.455C466.47 155.591 466.339 154.815 466.078 154.128C465.822 153.44 465.436 152.898 464.919 152.5C464.408 152.102 463.768 151.903 463.001 151.903C462.263 151.903 461.638 152.094 461.126 152.474C460.621 152.855 460.237 153.386 459.976 154.068C459.714 154.75 459.584 155.545 459.584 156.455ZM477.554 149.909V151.955H470.403V149.909H477.554ZM472.321 146.773H474.869V159.156C474.869 159.651 474.943 160.023 475.091 160.273C475.239 160.517 475.429 160.685 475.662 160.776C475.901 160.861 476.159 160.903 476.437 160.903C476.642 160.903 476.821 160.889 476.974 160.861C477.128 160.832 477.247 160.81 477.332 160.793L477.793 162.898C477.645 162.955 477.435 163.011 477.162 163.068C476.889 163.131 476.548 163.165 476.139 163.17C475.469 163.182 474.844 163.062 474.264 162.812C473.685 162.562 473.216 162.176 472.858 161.653C472.5 161.131 472.321 160.474 472.321 159.685V146.773ZM485.418 163.264C484.128 163.264 483.018 162.989 482.086 162.438C481.16 161.881 480.444 161.099 479.938 160.094C479.438 159.082 479.188 157.898 479.188 156.54C479.188 155.199 479.438 154.017 479.938 152.994C480.444 151.972 481.148 151.173 482.052 150.599C482.961 150.026 484.023 149.739 485.239 149.739C485.978 149.739 486.694 149.861 487.387 150.105C488.08 150.349 488.702 150.733 489.253 151.256C489.805 151.778 490.239 152.457 490.557 153.293C490.876 154.122 491.035 155.131 491.035 156.318V157.222H480.628V155.312H488.538C488.538 154.642 488.401 154.048 488.128 153.531C487.856 153.009 487.472 152.597 486.978 152.295C486.489 151.994 485.915 151.844 485.256 151.844C484.54 151.844 483.915 152.02 483.381 152.372C482.853 152.719 482.444 153.173 482.154 153.736C481.87 154.293 481.728 154.898 481.728 155.551V157.043C481.728 157.918 481.881 158.662 482.188 159.276C482.501 159.889 482.935 160.358 483.492 160.682C484.049 161 484.699 161.159 485.444 161.159C485.927 161.159 486.367 161.091 486.765 160.955C487.163 160.812 487.506 160.602 487.796 160.324C488.086 160.045 488.307 159.702 488.461 159.293L490.873 159.727C490.68 160.437 490.333 161.06 489.833 161.594C489.339 162.122 488.717 162.534 487.967 162.83C487.222 163.119 486.373 163.264 485.418 163.264ZM498.307 163.256C497.25 163.256 496.307 162.986 495.477 162.446C494.653 161.901 494.006 161.125 493.534 160.119C493.068 159.108 492.835 157.895 492.835 156.48C492.835 155.065 493.071 153.855 493.542 152.849C494.02 151.844 494.673 151.074 495.503 150.54C496.332 150.006 497.273 149.739 498.324 149.739C499.136 149.739 499.79 149.875 500.284 150.148C500.784 150.415 501.17 150.727 501.443 151.085C501.721 151.443 501.937 151.759 502.091 152.031H502.244V145.545H504.792V163H502.304V160.963H502.091C501.937 161.241 501.716 161.56 501.426 161.918C501.142 162.276 500.75 162.588 500.25 162.855C499.75 163.122 499.102 163.256 498.307 163.256ZM498.869 161.082C499.602 161.082 500.221 160.889 500.727 160.503C501.239 160.111 501.625 159.568 501.886 158.875C502.153 158.182 502.287 157.375 502.287 156.455C502.287 155.545 502.156 154.75 501.895 154.068C501.633 153.386 501.25 152.855 500.744 152.474C500.239 152.094 499.614 151.903 498.869 151.903C498.102 151.903 497.463 152.102 496.952 152.5C496.44 152.898 496.054 153.44 495.792 154.128C495.537 154.815 495.409 155.591 495.409 156.455C495.409 157.33 495.54 158.116 495.801 158.815C496.062 159.514 496.449 160.068 496.96 160.477C497.477 160.881 498.114 161.082 498.869 161.082Z" fill="black" fill-opacity="0.8"/>
<circle cx="672" cy="189" r="88" fill="#AFF4C6" stroke="#65BF8C" stroke-width="4" stroke-linecap="round"/>
<path d="M621.676 198H618.88L625.161 180.545H628.204L634.485 198H631.69L626.755 183.716H626.619L621.676 198ZM622.144 191.165H631.212V193.381H622.144V191.165ZM641.649 198.264C640.381 198.264 639.291 197.977 638.376 197.403C637.467 196.824 636.768 196.026 636.279 195.009C635.791 193.991 635.546 192.827 635.546 191.514C635.546 190.185 635.796 189.011 636.296 187.994C636.796 186.972 637.501 186.173 638.41 185.599C639.319 185.026 640.39 184.739 641.623 184.739C642.617 184.739 643.504 184.923 644.282 185.293C645.06 185.656 645.688 186.168 646.166 186.827C646.649 187.486 646.935 188.256 647.026 189.136H644.546C644.41 188.523 644.097 187.994 643.609 187.551C643.126 187.108 642.478 186.886 641.666 186.886C640.955 186.886 640.333 187.074 639.799 187.449C639.271 187.818 638.859 188.347 638.563 189.034C638.268 189.716 638.12 190.523 638.12 191.455C638.12 192.409 638.265 193.233 638.555 193.926C638.845 194.619 639.254 195.156 639.782 195.537C640.316 195.918 640.944 196.108 641.666 196.108C642.149 196.108 642.586 196.02 642.978 195.844C643.376 195.662 643.708 195.403 643.975 195.068C644.248 194.733 644.438 194.33 644.546 193.858H647.026C646.935 194.705 646.66 195.46 646.2 196.125C645.739 196.79 645.123 197.312 644.35 197.693C643.583 198.074 642.683 198.264 641.649 198.264ZM654.81 198.264C653.543 198.264 652.452 197.977 651.537 197.403C650.628 196.824 649.929 196.026 649.44 195.009C648.952 193.991 648.707 192.827 648.707 191.514C648.707 190.185 648.957 189.011 649.457 187.994C649.957 186.972 650.662 186.173 651.571 185.599C652.48 185.026 653.551 184.739 654.784 184.739C655.778 184.739 656.665 184.923 657.443 185.293C658.222 185.656 658.849 186.168 659.327 186.827C659.81 187.486 660.097 188.256 660.188 189.136H657.707C657.571 188.523 657.259 187.994 656.77 187.551C656.287 187.108 655.639 186.886 654.827 186.886C654.117 186.886 653.494 187.074 652.96 187.449C652.432 187.818 652.02 188.347 651.724 189.034C651.429 189.716 651.281 190.523 651.281 191.455C651.281 192.409 651.426 193.233 651.716 193.926C652.006 194.619 652.415 195.156 652.943 195.537C653.477 195.918 654.105 196.108 654.827 196.108C655.31 196.108 655.747 196.02 656.139 195.844C656.537 195.662 656.869 195.403 657.136 195.068C657.409 194.733 657.599 194.33 657.707 193.858H660.188C660.097 194.705 659.821 195.46 659.361 196.125C658.901 196.79 658.284 197.312 657.511 197.693C656.744 198.074 655.844 198.264 654.81 198.264ZM668.099 198.264C666.809 198.264 665.698 197.989 664.766 197.438C663.84 196.881 663.124 196.099 662.619 195.094C662.119 194.082 661.869 192.898 661.869 191.54C661.869 190.199 662.119 189.017 662.619 187.994C663.124 186.972 663.829 186.173 664.732 185.599C665.641 185.026 666.704 184.739 667.92 184.739C668.658 184.739 669.374 184.861 670.067 185.105C670.761 185.349 671.383 185.733 671.934 186.256C672.485 186.778 672.92 187.457 673.238 188.293C673.556 189.122 673.715 190.131 673.715 191.318V192.222H663.309V190.312H671.218C671.218 189.642 671.082 189.048 670.809 188.531C670.536 188.009 670.153 187.597 669.658 187.295C669.17 186.994 668.596 186.844 667.937 186.844C667.221 186.844 666.596 187.02 666.062 187.372C665.533 187.719 665.124 188.173 664.835 188.736C664.55 189.293 664.408 189.898 664.408 190.551V192.043C664.408 192.918 664.562 193.662 664.869 194.276C665.181 194.889 665.616 195.358 666.173 195.682C666.729 196 667.38 196.159 668.124 196.159C668.607 196.159 669.048 196.091 669.445 195.955C669.843 195.812 670.187 195.602 670.477 195.324C670.766 195.045 670.988 194.702 671.141 194.293L673.553 194.727C673.36 195.437 673.014 196.06 672.514 196.594C672.019 197.122 671.397 197.534 670.647 197.83C669.903 198.119 669.053 198.264 668.099 198.264ZM676.087 202.909V184.909H678.575V187.031H678.788C678.936 186.759 679.149 186.443 679.428 186.085C679.706 185.727 680.092 185.415 680.587 185.148C681.081 184.875 681.734 184.739 682.547 184.739C683.604 184.739 684.547 185.006 685.376 185.54C686.206 186.074 686.857 186.844 687.328 187.849C687.805 188.855 688.044 190.065 688.044 191.48C688.044 192.895 687.808 194.108 687.337 195.119C686.865 196.125 686.217 196.901 685.393 197.446C684.57 197.986 683.629 198.256 682.572 198.256C681.777 198.256 681.126 198.122 680.621 197.855C680.121 197.588 679.729 197.276 679.445 196.918C679.16 196.56 678.942 196.241 678.788 195.963H678.635V202.909H676.087ZM678.584 191.455C678.584 192.375 678.717 193.182 678.984 193.875C679.251 194.568 679.638 195.111 680.143 195.503C680.649 195.889 681.268 196.082 682.001 196.082C682.763 196.082 683.399 195.881 683.91 195.477C684.422 195.068 684.808 194.514 685.07 193.815C685.337 193.116 685.47 192.33 685.47 191.455C685.47 190.591 685.339 189.815 685.078 189.128C684.822 188.44 684.436 187.898 683.919 187.5C683.408 187.102 682.768 186.903 682.001 186.903C681.263 186.903 680.638 187.094 680.126 187.474C679.621 187.855 679.237 188.386 678.976 189.068C678.714 189.75 678.584 190.545 678.584 191.455ZM696.554 184.909V186.955H689.403V184.909H696.554ZM691.321 181.773H693.869V194.156C693.869 194.651 693.943 195.023 694.091 195.273C694.239 195.517 694.429 195.685 694.662 195.776C694.901 195.861 695.159 195.903 695.437 195.903C695.642 195.903 695.821 195.889 695.974 195.861C696.128 195.832 696.247 195.81 696.332 195.793L696.793 197.898C696.645 197.955 696.435 198.011 696.162 198.068C695.889 198.131 695.548 198.165 695.139 198.17C694.469 198.182 693.844 198.062 693.264 197.812C692.685 197.562 692.216 197.176 691.858 196.653C691.5 196.131 691.321 195.474 691.321 194.685V181.773ZM704.418 198.264C703.128 198.264 702.018 197.989 701.086 197.438C700.16 196.881 699.444 196.099 698.938 195.094C698.438 194.082 698.188 192.898 698.188 191.54C698.188 190.199 698.438 189.017 698.938 187.994C699.444 186.972 700.148 186.173 701.052 185.599C701.961 185.026 703.023 184.739 704.239 184.739C704.978 184.739 705.694 184.861 706.387 185.105C707.08 185.349 707.702 185.733 708.253 186.256C708.805 186.778 709.239 187.457 709.557 188.293C709.876 189.122 710.035 190.131 710.035 191.318V192.222H699.628V190.312H707.538C707.538 189.642 707.401 189.048 707.128 188.531C706.856 188.009 706.472 187.597 705.978 187.295C705.489 186.994 704.915 186.844 704.256 186.844C703.54 186.844 702.915 187.02 702.381 187.372C701.853 187.719 701.444 188.173 701.154 188.736C700.87 189.293 700.728 189.898 700.728 190.551V192.043C700.728 192.918 700.881 193.662 701.188 194.276C701.501 194.889 701.935 195.358 702.492 195.682C703.049 196 703.699 196.159 704.444 196.159C704.927 196.159 705.367 196.091 705.765 195.955C706.163 195.812 706.506 195.602 706.796 195.324C707.086 195.045 707.307 194.702 707.461 194.293L709.873 194.727C709.68 195.437 709.333 196.06 708.833 196.594C708.339 197.122 707.717 197.534 706.967 197.83C706.222 198.119 705.373 198.264 704.418 198.264ZM717.307 198.256C716.25 198.256 715.307 197.986 714.477 197.446C713.653 196.901 713.006 196.125 712.534 195.119C712.068 194.108 711.835 192.895 711.835 191.48C711.835 190.065 712.071 188.855 712.542 187.849C713.02 186.844 713.673 186.074 714.503 185.54C715.332 185.006 716.273 184.739 717.324 184.739C718.136 184.739 718.79 184.875 719.284 185.148C719.784 185.415 720.17 185.727 720.443 186.085C720.721 186.443 720.937 186.759 721.091 187.031H721.244V180.545H723.792V198H721.304V195.963H721.091C720.937 196.241 720.716 196.56 720.426 196.918C720.142 197.276 719.75 197.588 719.25 197.855C718.75 198.122 718.102 198.256 717.307 198.256ZM717.869 196.082C718.602 196.082 719.221 195.889 719.727 195.503C720.239 195.111 720.625 194.568 720.886 193.875C721.153 193.182 721.287 192.375 721.287 191.455C721.287 190.545 721.156 189.75 720.895 189.068C720.633 188.386 720.25 187.855 719.744 187.474C719.239 187.094 718.614 186.903 717.869 186.903C717.102 186.903 716.463 187.102 715.952 187.5C715.44 187.898 715.054 188.44 714.792 189.128C714.537 189.815 714.409 190.591 714.409 191.455C714.409 192.33 714.54 193.116 714.801 193.815C715.062 194.514 715.449 195.068 715.96 195.477C716.477 195.881 717.114 196.082 717.869 196.082Z" fill="black" fill-opacity="0.8"/>
<circle cx="736" cy="405" r="88" fill="#AFF4C6" stroke="#65BF8C" stroke-width="4" stroke-linecap="round"/>
<path d="M685.676 414H682.88L689.161 396.545H692.204L698.485 414H695.69L690.755 399.716H690.619L685.676 414ZM686.144 407.165H695.212V409.381H686.144V407.165ZM705.649 414.264C704.381 414.264 703.291 413.977 702.376 413.403C701.467 412.824 700.768 412.026 700.279 411.009C699.791 409.991 699.546 408.827 699.546 407.514C699.546 406.185 699.796 405.011 700.296 403.994C700.796 402.972 701.501 402.173 702.41 401.599C703.319 401.026 704.39 400.739 705.623 400.739C706.617 400.739 707.504 400.923 708.282 401.293C709.06 401.656 709.688 402.168 710.166 402.827C710.649 403.486 710.935 404.256 711.026 405.136H708.546C708.41 404.523 708.097 403.994 707.609 403.551C707.126 403.108 706.478 402.886 705.666 402.886C704.955 402.886 704.333 403.074 703.799 403.449C703.271 403.818 702.859 404.347 702.563 405.034C702.268 405.716 702.12 406.523 702.12 407.455C702.12 408.409 702.265 409.233 702.555 409.926C702.845 410.619 703.254 411.156 703.782 411.537C704.316 411.918 704.944 412.108 705.666 412.108C706.149 412.108 706.586 412.02 706.978 411.844C707.376 411.662 707.708 411.403 707.975 411.068C708.248 410.733 708.438 410.33 708.546 409.858H711.026C710.935 410.705 710.66 411.46 710.2 412.125C709.739 412.79 709.123 413.312 708.35 413.693C707.583 414.074 706.683 414.264 705.649 414.264ZM718.81 414.264C717.543 414.264 716.452 413.977 715.537 413.403C714.628 412.824 713.929 412.026 713.44 411.009C712.952 409.991 712.707 408.827 712.707 407.514C712.707 406.185 712.957 405.011 713.457 403.994C713.957 402.972 714.662 402.173 715.571 401.599C716.48 401.026 717.551 400.739 718.784 400.739C719.778 400.739 720.665 400.923 721.443 401.293C722.222 401.656 722.849 402.168 723.327 402.827C723.81 403.486 724.097 404.256 724.188 405.136H721.707C721.571 404.523 721.259 403.994 720.77 403.551C720.287 403.108 719.639 402.886 718.827 402.886C718.117 402.886 717.494 403.074 716.96 403.449C716.432 403.818 716.02 404.347 715.724 405.034C715.429 405.716 715.281 406.523 715.281 407.455C715.281 408.409 715.426 409.233 715.716 409.926C716.006 410.619 716.415 411.156 716.943 411.537C717.477 411.918 718.105 412.108 718.827 412.108C719.31 412.108 719.747 412.02 720.139 411.844C720.537 411.662 720.869 411.403 721.136 411.068C721.409 410.733 721.599 410.33 721.707 409.858H724.188C724.097 410.705 723.821 411.46 723.361 412.125C722.901 412.79 722.284 413.312 721.511 413.693C720.744 414.074 719.844 414.264 718.81 414.264ZM732.099 414.264C730.809 414.264 729.698 413.989 728.766 413.438C727.84 412.881 727.124 412.099 726.619 411.094C726.119 410.082 725.869 408.898 725.869 407.54C725.869 406.199 726.119 405.017 726.619 403.994C727.124 402.972 727.829 402.173 728.732 401.599C729.641 401.026 730.704 400.739 731.92 400.739C732.658 400.739 733.374 400.861 734.067 401.105C734.761 401.349 735.383 401.733 735.934 402.256C736.485 402.778 736.92 403.457 737.238 404.293C737.556 405.122 737.715 406.131 737.715 407.318V408.222H727.309V406.312H735.218C735.218 405.642 735.082 405.048 734.809 404.531C734.536 404.009 734.153 403.597 733.658 403.295C733.17 402.994 732.596 402.844 731.937 402.844C731.221 402.844 730.596 403.02 730.062 403.372C729.533 403.719 729.124 404.173 728.835 404.736C728.55 405.293 728.408 405.898 728.408 406.551V408.043C728.408 408.918 728.562 409.662 728.869 410.276C729.181 410.889 729.616 411.358 730.173 411.682C730.729 412 731.38 412.159 732.124 412.159C732.607 412.159 733.048 412.091 733.445 411.955C733.843 411.812 734.187 411.602 734.477 411.324C734.766 411.045 734.988 410.702 735.141 410.293L737.553 410.727C737.36 411.437 737.014 412.06 736.514 412.594C736.019 413.122 735.397 413.534 734.647 413.83C733.903 414.119 733.053 414.264 732.099 414.264ZM740.087 418.909V400.909H742.575V403.031H742.788C742.936 402.759 743.149 402.443 743.428 402.085C743.706 401.727 744.092 401.415 744.587 401.148C745.081 400.875 745.734 400.739 746.547 400.739C747.604 400.739 748.547 401.006 749.376 401.54C750.206 402.074 750.857 402.844 751.328 403.849C751.805 404.855 752.044 406.065 752.044 407.48C752.044 408.895 751.808 410.108 751.337 411.119C750.865 412.125 750.217 412.901 749.393 413.446C748.57 413.986 747.629 414.256 746.572 414.256C745.777 414.256 745.126 414.122 744.621 413.855C744.121 413.588 743.729 413.276 743.445 412.918C743.16 412.56 742.942 412.241 742.788 411.963H742.635V418.909H740.087ZM742.584 407.455C742.584 408.375 742.717 409.182 742.984 409.875C743.251 410.568 743.638 411.111 744.143 411.503C744.649 411.889 745.268 412.082 746.001 412.082C746.763 412.082 747.399 411.881 747.91 411.477C748.422 411.068 748.808 410.514 749.07 409.815C749.337 409.116 749.47 408.33 749.47 407.455C749.47 406.591 749.339 405.815 749.078 405.128C748.822 404.44 748.436 403.898 747.919 403.5C747.408 403.102 746.768 402.903 746.001 402.903C745.263 402.903 744.638 403.094 744.126 403.474C743.621 403.855 743.237 404.386 742.976 405.068C742.714 405.75 742.584 406.545 742.584 407.455ZM760.554 400.909V402.955H753.403V400.909H760.554ZM755.321 397.773H757.869V410.156C757.869 410.651 757.943 411.023 758.091 411.273C758.239 411.517 758.429 411.685 758.662 411.776C758.901 411.861 759.159 411.903 759.437 411.903C759.642 411.903 759.821 411.889 759.974 411.861C760.128 411.832 760.247 411.81 760.332 411.793L760.793 413.898C760.645 413.955 760.435 414.011 760.162 414.068C759.889 414.131 759.548 414.165 759.139 414.17C758.469 414.182 757.844 414.062 757.264 413.812C756.685 413.562 756.216 413.176 755.858 412.653C755.5 412.131 755.321 411.474 755.321 410.685V397.773ZM768.418 414.264C767.128 414.264 766.018 413.989 765.086 413.438C764.16 412.881 763.444 412.099 762.938 411.094C762.438 410.082 762.188 408.898 762.188 407.54C762.188 406.199 762.438 405.017 762.938 403.994C763.444 402.972 764.148 402.173 765.052 401.599C765.961 401.026 767.023 400.739 768.239 400.739C768.978 400.739 769.694 400.861 770.387 401.105C771.08 401.349 771.702 401.733 772.253 402.256C772.805 402.778 773.239 403.457 773.557 404.293C773.876 405.122 774.035 406.131 774.035 407.318V408.222H763.628V406.312H771.538C771.538 405.642 771.401 405.048 771.128 404.531C770.856 404.009 770.472 403.597 769.978 403.295C769.489 402.994 768.915 402.844 768.256 402.844C767.54 402.844 766.915 403.02 766.381 403.372C765.853 403.719 765.444 404.173 765.154 404.736C764.87 405.293 764.728 405.898 764.728 406.551V408.043C764.728 408.918 764.881 409.662 765.188 410.276C765.501 410.889 765.935 411.358 766.492 411.682C767.049 412 767.699 412.159 768.444 412.159C768.927 412.159 769.367 412.091 769.765 411.955C770.163 411.812 770.506 411.602 770.796 411.324C771.086 411.045 771.307 410.702 771.461 410.293L773.873 410.727C773.68 411.437 773.333 412.06 772.833 412.594C772.339 413.122 771.717 413.534 770.967 413.83C770.222 414.119 769.373 414.264 768.418 414.264ZM781.307 414.256C780.25 414.256 779.307 413.986 778.477 413.446C777.653 412.901 777.006 412.125 776.534 411.119C776.068 410.108 775.835 408.895 775.835 407.48C775.835 406.065 776.071 404.855 776.542 403.849C777.02 402.844 777.673 402.074 778.503 401.54C779.332 401.006 780.273 400.739 781.324 400.739C782.136 400.739 782.79 400.875 783.284 401.148C783.784 401.415 784.17 401.727 784.443 402.085C784.721 402.443 784.937 402.759 785.091 403.031H785.244V396.545H787.792V414H785.304V411.963H785.091C784.937 412.241 784.716 412.56 784.426 412.918C784.142 413.276 783.75 413.588 783.25 413.855C782.75 414.122 782.102 414.256 781.307 414.256ZM781.869 412.082C782.602 412.082 783.221 411.889 783.727 411.503C784.239 411.111 784.625 410.568 784.886 409.875C785.153 409.182 785.287 408.375 785.287 407.455C785.287 406.545 785.156 405.75 784.895 405.068C784.633 404.386 784.25 403.855 783.744 403.474C783.239 403.094 782.614 402.903 781.869 402.903C781.102 402.903 780.463 403.102 779.952 403.5C779.44 403.898 779.054 404.44 778.792 405.128C778.537 405.815 778.409 406.591 778.409 407.455C778.409 408.33 778.54 409.116 778.801 409.815C779.062 410.514 779.449 411.068 779.96 411.477C780.477 411.881 781.114 412.082 781.869 412.082Z" fill="black" fill-opacity="0.8"/>
<circle cx="672" cy="602" r="88" fill="#E4CCFF" stroke="#D577FF" stroke-width="4" stroke-linecap="round"/>
<path d="M632.869 611V593.545H639.091C640.443 593.545 641.565 593.778 642.457 594.244C643.355 594.71 644.025 595.355 644.469 596.179C644.912 596.997 645.133 597.943 645.133 599.017C645.133 600.085 644.909 601.026 644.46 601.838C644.017 602.645 643.346 603.273 642.449 603.722C641.557 604.17 640.434 604.395 639.082 604.395H634.369V602.128H638.844C639.696 602.128 640.389 602.006 640.923 601.761C641.463 601.517 641.858 601.162 642.108 600.696C642.358 600.23 642.483 599.67 642.483 599.017C642.483 598.358 642.355 597.787 642.099 597.304C641.849 596.821 641.454 596.452 640.915 596.196C640.38 595.935 639.679 595.804 638.809 595.804H635.503V611H632.869ZM641.486 603.125L645.798 611H642.798L638.571 603.125H641.486ZM653.155 611.264C651.865 611.264 650.755 610.989 649.823 610.438C648.897 609.881 648.181 609.099 647.675 608.094C647.175 607.082 646.925 605.898 646.925 604.54C646.925 603.199 647.175 602.017 647.675 600.994C648.181 599.972 648.885 599.173 649.789 598.599C650.698 598.026 651.76 597.739 652.976 597.739C653.715 597.739 654.431 597.861 655.124 598.105C655.817 598.349 656.439 598.733 656.99 599.256C657.542 599.778 657.976 600.457 658.294 601.293C658.613 602.122 658.772 603.131 658.772 604.318V605.222H648.365V603.312H656.275C656.275 602.642 656.138 602.048 655.865 601.531C655.593 601.009 655.209 600.597 654.715 600.295C654.226 599.994 653.652 599.844 652.993 599.844C652.277 599.844 651.652 600.02 651.118 600.372C650.59 600.719 650.181 601.173 649.891 601.736C649.607 602.293 649.465 602.898 649.465 603.551V605.043C649.465 605.918 649.618 606.662 649.925 607.276C650.238 607.889 650.672 608.358 651.229 608.682C651.786 609 652.437 609.159 653.181 609.159C653.664 609.159 654.104 609.091 654.502 608.955C654.9 608.812 655.243 608.602 655.533 608.324C655.823 608.045 656.044 607.702 656.198 607.293L658.61 607.727C658.417 608.437 658.07 609.06 657.57 609.594C657.076 610.122 656.454 610.534 655.704 610.83C654.959 611.119 654.11 611.264 653.155 611.264ZM667.373 597.909V599.955H659.976V597.909H667.373ZM662.004 611V596.392C662.004 595.574 662.183 594.895 662.541 594.355C662.899 593.81 663.373 593.403 663.964 593.136C664.555 592.864 665.197 592.727 665.89 592.727C666.402 592.727 666.839 592.77 667.203 592.855C667.566 592.935 667.836 593.009 668.012 593.077L667.416 595.139C667.297 595.105 667.143 595.065 666.956 595.02C666.768 594.969 666.541 594.943 666.274 594.943C665.655 594.943 665.211 595.097 664.944 595.403C664.683 595.71 664.552 596.153 664.552 596.733V611H662.004ZM669.547 611V597.909H672.095V611H669.547ZM670.833 595.889C670.39 595.889 670.01 595.741 669.691 595.446C669.379 595.145 669.223 594.787 669.223 594.372C669.223 593.952 669.379 593.594 669.691 593.298C670.01 592.997 670.39 592.847 670.833 592.847C671.277 592.847 671.654 592.997 671.967 593.298C672.285 593.594 672.444 593.952 672.444 594.372C672.444 594.787 672.285 595.145 671.967 595.446C671.654 595.741 671.277 595.889 670.833 595.889ZM677.615 593.545V611H675.067V593.545H677.615ZM683.136 593.545V611H680.588V593.545H683.136ZM691.75 611.264C690.46 611.264 689.35 610.989 688.418 610.438C687.492 609.881 686.776 609.099 686.27 608.094C685.77 607.082 685.52 605.898 685.52 604.54C685.52 603.199 685.77 602.017 686.27 600.994C686.776 599.972 687.48 599.173 688.384 598.599C689.293 598.026 690.355 597.739 691.571 597.739C692.31 597.739 693.026 597.861 693.719 598.105C694.412 598.349 695.034 598.733 695.585 599.256C696.137 599.778 696.571 600.457 696.889 601.293C697.208 602.122 697.367 603.131 697.367 604.318V605.222H686.96V603.312H694.87C694.87 602.642 694.733 602.048 694.46 601.531C694.188 601.009 693.804 600.597 693.31 600.295C692.821 599.994 692.247 599.844 691.588 599.844C690.872 599.844 690.247 600.02 689.713 600.372C689.185 600.719 688.776 601.173 688.486 601.736C688.202 602.293 688.06 602.898 688.06 603.551V605.043C688.06 605.918 688.213 606.662 688.52 607.276C688.833 607.889 689.267 608.358 689.824 608.682C690.381 609 691.032 609.159 691.776 609.159C692.259 609.159 692.699 609.091 693.097 608.955C693.495 608.812 693.838 608.602 694.128 608.324C694.418 608.045 694.639 607.702 694.793 607.293L697.205 607.727C697.012 608.437 696.665 609.06 696.165 609.594C695.671 610.122 695.049 610.534 694.299 610.83C693.554 611.119 692.705 611.264 691.75 611.264ZM704.639 611.256C703.582 611.256 702.639 610.986 701.809 610.446C700.985 609.901 700.338 609.125 699.866 608.119C699.4 607.108 699.167 605.895 699.167 604.48C699.167 603.065 699.403 601.855 699.875 600.849C700.352 599.844 701.005 599.074 701.835 598.54C702.664 598.006 703.605 597.739 704.656 597.739C705.468 597.739 706.122 597.875 706.616 598.148C707.116 598.415 707.502 598.727 707.775 599.085C708.054 599.443 708.269 599.759 708.423 600.031H708.576V593.545H711.125V611H708.636V608.963H708.423C708.269 609.241 708.048 609.56 707.758 609.918C707.474 610.276 707.082 610.588 706.582 610.855C706.082 611.122 705.434 611.256 704.639 611.256ZM705.201 609.082C705.934 609.082 706.554 608.889 707.059 608.503C707.571 608.111 707.957 607.568 708.218 606.875C708.485 606.182 708.619 605.375 708.619 604.455C708.619 603.545 708.488 602.75 708.227 602.068C707.965 601.386 707.582 600.855 707.076 600.474C706.571 600.094 705.946 599.903 705.201 599.903C704.434 599.903 703.795 600.102 703.284 600.5C702.772 600.898 702.386 601.44 702.125 602.128C701.869 602.815 701.741 603.591 701.741 604.455C701.741 605.33 701.872 606.116 702.133 606.815C702.394 607.514 702.781 608.068 703.292 608.477C703.809 608.881 704.446 609.082 705.201 609.082Z" fill="black" fill-opacity="0.8"/>
<circle cx="453" cy="656" r="88" fill="#AFF4C6" stroke="#65BF8C" stroke-width="4" stroke-linecap="round"/>
<path d="M402.676 665H399.88L406.161 647.545H409.204L415.485 665H412.69L407.755 650.716H407.619L402.676 665ZM403.144 658.165H412.212V660.381H403.144V658.165ZM422.649 665.264C421.381 665.264 420.291 664.977 419.376 664.403C418.467 663.824 417.768 663.026 417.279 662.009C416.791 660.991 416.546 659.827 416.546 658.514C416.546 657.185 416.796 656.011 417.296 654.994C417.796 653.972 418.501 653.173 419.41 652.599C420.319 652.026 421.39 651.739 422.623 651.739C423.617 651.739 424.504 651.923 425.282 652.293C426.06 652.656 426.688 653.168 427.166 653.827C427.649 654.486 427.935 655.256 428.026 656.136H425.546C425.41 655.523 425.097 654.994 424.609 654.551C424.126 654.108 423.478 653.886 422.666 653.886C421.955 653.886 421.333 654.074 420.799 654.449C420.271 654.818 419.859 655.347 419.563 656.034C419.268 656.716 419.12 657.523 419.12 658.455C419.12 659.409 419.265 660.233 419.555 660.926C419.845 661.619 420.254 662.156 420.782 662.537C421.316 662.918 421.944 663.108 422.666 663.108C423.149 663.108 423.586 663.02 423.978 662.844C424.376 662.662 424.708 662.403 424.975 662.068C425.248 661.733 425.438 661.33 425.546 660.858H428.026C427.935 661.705 427.66 662.46 427.2 663.125C426.739 663.79 426.123 664.312 425.35 664.693C424.583 665.074 423.683 665.264 422.649 665.264ZM435.81 665.264C434.543 665.264 433.452 664.977 432.537 664.403C431.628 663.824 430.929 663.026 430.44 662.009C429.952 660.991 429.707 659.827 429.707 658.514C429.707 657.185 429.957 656.011 430.457 654.994C430.957 653.972 431.662 653.173 432.571 652.599C433.48 652.026 434.551 651.739 435.784 651.739C436.778 651.739 437.665 651.923 438.443 652.293C439.222 652.656 439.849 653.168 440.327 653.827C440.81 654.486 441.097 655.256 441.188 656.136H438.707C438.571 655.523 438.259 654.994 437.77 654.551C437.287 654.108 436.639 653.886 435.827 653.886C435.117 653.886 434.494 654.074 433.96 654.449C433.432 654.818 433.02 655.347 432.724 656.034C432.429 656.716 432.281 657.523 432.281 658.455C432.281 659.409 432.426 660.233 432.716 660.926C433.006 661.619 433.415 662.156 433.943 662.537C434.477 662.918 435.105 663.108 435.827 663.108C436.31 663.108 436.747 663.02 437.139 662.844C437.537 662.662 437.869 662.403 438.136 662.068C438.409 661.733 438.599 661.33 438.707 660.858H441.188C441.097 661.705 440.821 662.46 440.361 663.125C439.901 663.79 439.284 664.312 438.511 664.693C437.744 665.074 436.844 665.264 435.81 665.264ZM449.099 665.264C447.809 665.264 446.698 664.989 445.766 664.438C444.84 663.881 444.124 663.099 443.619 662.094C443.119 661.082 442.869 659.898 442.869 658.54C442.869 657.199 443.119 656.017 443.619 654.994C444.124 653.972 444.829 653.173 445.732 652.599C446.641 652.026 447.704 651.739 448.92 651.739C449.658 651.739 450.374 651.861 451.067 652.105C451.761 652.349 452.383 652.733 452.934 653.256C453.485 653.778 453.92 654.457 454.238 655.293C454.556 656.122 454.715 657.131 454.715 658.318V659.222H444.309V657.312H452.218C452.218 656.642 452.082 656.048 451.809 655.531C451.536 655.009 451.153 654.597 450.658 654.295C450.17 653.994 449.596 653.844 448.937 653.844C448.221 653.844 447.596 654.02 447.062 654.372C446.533 654.719 446.124 655.173 445.835 655.736C445.55 656.293 445.408 656.898 445.408 657.551V659.043C445.408 659.918 445.562 660.662 445.869 661.276C446.181 661.889 446.616 662.358 447.173 662.682C447.729 663 448.38 663.159 449.124 663.159C449.607 663.159 450.048 663.091 450.445 662.955C450.843 662.812 451.187 662.602 451.477 662.324C451.766 662.045 451.988 661.702 452.141 661.293L454.553 661.727C454.36 662.437 454.014 663.06 453.514 663.594C453.019 664.122 452.397 664.534 451.647 664.83C450.903 665.119 450.053 665.264 449.099 665.264ZM457.087 669.909V651.909H459.575V654.031H459.788C459.936 653.759 460.149 653.443 460.428 653.085C460.706 652.727 461.092 652.415 461.587 652.148C462.081 651.875 462.734 651.739 463.547 651.739C464.604 651.739 465.547 652.006 466.376 652.54C467.206 653.074 467.857 653.844 468.328 654.849C468.805 655.855 469.044 657.065 469.044 658.48C469.044 659.895 468.808 661.108 468.337 662.119C467.865 663.125 467.217 663.901 466.393 664.446C465.57 664.986 464.629 665.256 463.572 665.256C462.777 665.256 462.126 665.122 461.621 664.855C461.121 664.588 460.729 664.276 460.445 663.918C460.16 663.56 459.942 663.241 459.788 662.963H459.635V669.909H457.087ZM459.584 658.455C459.584 659.375 459.717 660.182 459.984 660.875C460.251 661.568 460.638 662.111 461.143 662.503C461.649 662.889 462.268 663.082 463.001 663.082C463.763 663.082 464.399 662.881 464.91 662.477C465.422 662.068 465.808 661.514 466.07 660.815C466.337 660.116 466.47 659.33 466.47 658.455C466.47 657.591 466.339 656.815 466.078 656.128C465.822 655.44 465.436 654.898 464.919 654.5C464.408 654.102 463.768 653.903 463.001 653.903C462.263 653.903 461.638 654.094 461.126 654.474C460.621 654.855 460.237 655.386 459.976 656.068C459.714 656.75 459.584 657.545 459.584 658.455ZM477.554 651.909V653.955H470.403V651.909H477.554ZM472.321 648.773H474.869V661.156C474.869 661.651 474.943 662.023 475.091 662.273C475.239 662.517 475.429 662.685 475.662 662.776C475.901 662.861 476.159 662.903 476.437 662.903C476.642 662.903 476.821 662.889 476.974 662.861C477.128 662.832 477.247 662.81 477.332 662.793L477.793 664.898C477.645 664.955 477.435 665.011 477.162 665.068C476.889 665.131 476.548 665.165 476.139 665.17C475.469 665.182 474.844 665.062 474.264 664.812C473.685 664.562 473.216 664.176 472.858 663.653C472.5 663.131 472.321 662.474 472.321 661.685V648.773ZM485.418 665.264C484.128 665.264 483.018 664.989 482.086 664.438C481.16 663.881 480.444 663.099 479.938 662.094C479.438 661.082 479.188 659.898 479.188 658.54C479.188 657.199 479.438 656.017 479.938 654.994C480.444 653.972 481.148 653.173 482.052 652.599C482.961 652.026 484.023 651.739 485.239 651.739C485.978 651.739 486.694 651.861 487.387 652.105C488.08 652.349 488.702 652.733 489.253 653.256C489.805 653.778 490.239 654.457 490.557 655.293C490.876 656.122 491.035 657.131 491.035 658.318V659.222H480.628V657.312H488.538C488.538 656.642 488.401 656.048 488.128 655.531C487.856 655.009 487.472 654.597 486.978 654.295C486.489 653.994 485.915 653.844 485.256 653.844C484.54 653.844 483.915 654.02 483.381 654.372C482.853 654.719 482.444 655.173 482.154 655.736C481.87 656.293 481.728 656.898 481.728 657.551V659.043C481.728 659.918 481.881 660.662 482.188 661.276C482.501 661.889 482.935 662.358 483.492 662.682C484.049 663 484.699 663.159 485.444 663.159C485.927 663.159 486.367 663.091 486.765 662.955C487.163 662.812 487.506 662.602 487.796 662.324C488.086 662.045 488.307 661.702 488.461 661.293L490.873 661.727C490.68 662.437 490.333 663.06 489.833 663.594C489.339 664.122 488.717 664.534 487.967 664.83C487.222 665.119 486.373 665.264 485.418 665.264ZM498.307 665.256C497.25 665.256 496.307 664.986 495.477 664.446C494.653 663.901 494.006 663.125 493.534 662.119C493.068 661.108 492.835 659.895 492.835 658.48C492.835 657.065 493.071 655.855 493.542 654.849C494.02 653.844 494.673 653.074 495.503 652.54C496.332 652.006 497.273 651.739 498.324 651.739C499.136 651.739 499.79 651.875 500.284 652.148C500.784 652.415 501.17 652.727 501.443 653.085C501.721 653.443 501.937 653.759 502.091 654.031H502.244V647.545H504.792V665H502.304V662.963H502.091C501.937 663.241 501.716 663.56 501.426 663.918C501.142 664.276 500.75 664.588 500.25 664.855C499.75 665.122 499.102 665.256 498.307 665.256ZM498.869 663.082C499.602 663.082 500.221 662.889 500.727 662.503C501.239 662.111 501.625 661.568 501.886 660.875C502.153 660.182 502.287 659.375 502.287 658.455C502.287 657.545 502.156 656.75 501.895 656.068C501.633 655.386 501.25 654.855 500.744 654.474C500.239 654.094 499.614 653.903 498.869 653.903C498.102 653.903 497.463 654.102 496.952 654.5C496.44 654.898 496.054 655.44 495.792 656.128C495.537 656.815 495.409 657.591 495.409 658.455C495.409 659.33 495.54 660.116 495.801 660.815C496.062 661.514 496.449 662.068 496.96 662.477C497.477 662.881 498.114 663.082 498.869 663.082Z" fill="black" fill-opacity="0.8"/>
<circle cx="234" cy="602" r="88" fill="#AFF4C6" stroke="#65BF8C" stroke-width="4" stroke-linecap="round"/>
<path d="M183.676 611H180.88L187.161 593.545H190.204L196.485 611H193.69L188.755 596.716H188.619L183.676 611ZM184.144 604.165H193.212V606.381H184.144V604.165ZM203.649 611.264C202.381 611.264 201.291 610.977 200.376 610.403C199.467 609.824 198.768 609.026 198.279 608.009C197.791 606.991 197.546 605.827 197.546 604.514C197.546 603.185 197.796 602.011 198.296 600.994C198.796 599.972 199.501 599.173 200.41 598.599C201.319 598.026 202.39 597.739 203.623 597.739C204.617 597.739 205.504 597.923 206.282 598.293C207.06 598.656 207.688 599.168 208.166 599.827C208.649 600.486 208.935 601.256 209.026 602.136H206.546C206.41 601.523 206.097 600.994 205.609 600.551C205.126 600.108 204.478 599.886 203.666 599.886C202.955 599.886 202.333 600.074 201.799 600.449C201.271 600.818 200.859 601.347 200.563 602.034C200.268 602.716 200.12 603.523 200.12 604.455C200.12 605.409 200.265 606.233 200.555 606.926C200.845 607.619 201.254 608.156 201.782 608.537C202.316 608.918 202.944 609.108 203.666 609.108C204.149 609.108 204.586 609.02 204.978 608.844C205.376 608.662 205.708 608.403 205.975 608.068C206.248 607.733 206.438 607.33 206.546 606.858H209.026C208.935 607.705 208.66 608.46 208.2 609.125C207.739 609.79 207.123 610.312 206.35 610.693C205.583 611.074 204.683 611.264 203.649 611.264ZM216.81 611.264C215.543 611.264 214.452 610.977 213.537 610.403C212.628 609.824 211.929 609.026 211.44 608.009C210.952 606.991 210.707 605.827 210.707 604.514C210.707 603.185 210.957 602.011 211.457 600.994C211.957 599.972 212.662 599.173 213.571 598.599C214.48 598.026 215.551 597.739 216.784 597.739C217.778 597.739 218.665 597.923 219.443 598.293C220.222 598.656 220.849 599.168 221.327 599.827C221.81 600.486 222.097 601.256 222.188 602.136H219.707C219.571 601.523 219.259 600.994 218.77 600.551C218.287 600.108 217.639 599.886 216.827 599.886C216.117 599.886 215.494 600.074 214.96 600.449C214.432 600.818 214.02 601.347 213.724 602.034C213.429 602.716 213.281 603.523 213.281 604.455C213.281 605.409 213.426 606.233 213.716 606.926C214.006 607.619 214.415 608.156 214.943 608.537C215.477 608.918 216.105 609.108 216.827 609.108C217.31 609.108 217.747 609.02 218.139 608.844C218.537 608.662 218.869 608.403 219.136 608.068C219.409 607.733 219.599 607.33 219.707 606.858H222.188C222.097 607.705 221.821 608.46 221.361 609.125C220.901 609.79 220.284 610.312 219.511 610.693C218.744 611.074 217.844 611.264 216.81 611.264ZM230.099 611.264C228.809 611.264 227.698 610.989 226.766 610.438C225.84 609.881 225.124 609.099 224.619 608.094C224.119 607.082 223.869 605.898 223.869 604.54C223.869 603.199 224.119 602.017 224.619 600.994C225.124 599.972 225.829 599.173 226.732 598.599C227.641 598.026 228.704 597.739 229.92 597.739C230.658 597.739 231.374 597.861 232.067 598.105C232.761 598.349 233.383 598.733 233.934 599.256C234.485 599.778 234.92 600.457 235.238 601.293C235.556 602.122 235.715 603.131 235.715 604.318V605.222H225.309V603.312H233.218C233.218 602.642 233.082 602.048 232.809 601.531C232.536 601.009 232.153 600.597 231.658 600.295C231.17 599.994 230.596 599.844 229.937 599.844C229.221 599.844 228.596 600.02 228.062 600.372C227.533 600.719 227.124 601.173 226.835 601.736C226.55 602.293 226.408 602.898 226.408 603.551V605.043C226.408 605.918 226.562 606.662 226.869 607.276C227.181 607.889 227.616 608.358 228.173 608.682C228.729 609 229.38 609.159 230.124 609.159C230.607 609.159 231.048 609.091 231.445 608.955C231.843 608.812 232.187 608.602 232.477 608.324C232.766 608.045 232.988 607.702 233.141 607.293L235.553 607.727C235.36 608.437 235.014 609.06 234.514 609.594C234.019 610.122 233.397 610.534 232.647 610.83C231.903 611.119 231.053 611.264 230.099 611.264ZM238.087 615.909V597.909H240.575V600.031H240.788C240.936 599.759 241.149 599.443 241.428 599.085C241.706 598.727 242.092 598.415 242.587 598.148C243.081 597.875 243.734 597.739 244.547 597.739C245.604 597.739 246.547 598.006 247.376 598.54C248.206 599.074 248.857 599.844 249.328 600.849C249.805 601.855 250.044 603.065 250.044 604.48C250.044 605.895 249.808 607.108 249.337 608.119C248.865 609.125 248.217 609.901 247.393 610.446C246.57 610.986 245.629 611.256 244.572 611.256C243.777 611.256 243.126 611.122 242.621 610.855C242.121 610.588 241.729 610.276 241.445 609.918C241.16 609.56 240.942 609.241 240.788 608.963H240.635V615.909H238.087ZM240.584 604.455C240.584 605.375 240.717 606.182 240.984 606.875C241.251 607.568 241.638 608.111 242.143 608.503C242.649 608.889 243.268 609.082 244.001 609.082C244.763 609.082 245.399 608.881 245.91 608.477C246.422 608.068 246.808 607.514 247.07 606.815C247.337 606.116 247.47 605.33 247.47 604.455C247.47 603.591 247.339 602.815 247.078 602.128C246.822 601.44 246.436 600.898 245.919 600.5C245.408 600.102 244.768 599.903 244.001 599.903C243.263 599.903 242.638 600.094 242.126 600.474C241.621 600.855 241.237 601.386 240.976 602.068C240.714 602.75 240.584 603.545 240.584 604.455ZM258.554 597.909V599.955H251.403V597.909H258.554ZM253.321 594.773H255.869V607.156C255.869 607.651 255.943 608.023 256.091 608.273C256.239 608.517 256.429 608.685 256.662 608.776C256.901 608.861 257.159 608.903 257.437 608.903C257.642 608.903 257.821 608.889 257.974 608.861C258.128 608.832 258.247 608.81 258.332 608.793L258.793 610.898C258.645 610.955 258.435 611.011 258.162 611.068C257.889 611.131 257.548 611.165 257.139 611.17C256.469 611.182 255.844 611.062 255.264 610.812C254.685 610.562 254.216 610.176 253.858 609.653C253.5 609.131 253.321 608.474 253.321 607.685V594.773ZM266.418 611.264C265.128 611.264 264.018 610.989 263.086 610.438C262.16 609.881 261.444 609.099 260.938 608.094C260.438 607.082 260.188 605.898 260.188 604.54C260.188 603.199 260.438 602.017 260.938 600.994C261.444 599.972 262.148 599.173 263.052 598.599C263.961 598.026 265.023 597.739 266.239 597.739C266.978 597.739 267.694 597.861 268.387 598.105C269.08 598.349 269.702 598.733 270.253 599.256C270.805 599.778 271.239 600.457 271.557 601.293C271.876 602.122 272.035 603.131 272.035 604.318V605.222H261.628V603.312H269.538C269.538 602.642 269.401 602.048 269.128 601.531C268.856 601.009 268.472 600.597 267.978 600.295C267.489 599.994 266.915 599.844 266.256 599.844C265.54 599.844 264.915 600.02 264.381 600.372C263.853 600.719 263.444 601.173 263.154 601.736C262.87 602.293 262.728 602.898 262.728 603.551V605.043C262.728 605.918 262.881 606.662 263.188 607.276C263.501 607.889 263.935 608.358 264.492 608.682C265.049 609 265.699 609.159 266.444 609.159C266.927 609.159 267.367 609.091 267.765 608.955C268.163 608.812 268.506 608.602 268.796 608.324C269.086 608.045 269.307 607.702 269.461 607.293L271.873 607.727C271.68 608.437 271.333 609.06 270.833 609.594C270.339 610.122 269.717 610.534 268.967 610.83C268.222 611.119 267.373 611.264 266.418 611.264ZM279.307 611.256C278.25 611.256 277.307 610.986 276.477 610.446C275.653 609.901 275.006 609.125 274.534 608.119C274.068 607.108 273.835 605.895 273.835 604.48C273.835 603.065 274.071 601.855 274.542 600.849C275.02 599.844 275.673 599.074 276.503 598.54C277.332 598.006 278.273 597.739 279.324 597.739C280.136 597.739 280.79 597.875 281.284 598.148C281.784 598.415 282.17 598.727 282.443 599.085C282.721 599.443 282.937 599.759 283.091 600.031H283.244V593.545H285.792V611H283.304V608.963H283.091C282.937 609.241 282.716 609.56 282.426 609.918C282.142 610.276 281.75 610.588 281.25 610.855C280.75 611.122 280.102 611.256 279.307 611.256ZM279.869 609.082C280.602 609.082 281.221 608.889 281.727 608.503C282.239 608.111 282.625 607.568 282.886 606.875C283.153 606.182 283.287 605.375 283.287 604.455C283.287 603.545 283.156 602.75 282.895 602.068C282.633 601.386 282.25 600.855 281.744 600.474C281.239 600.094 280.614 599.903 279.869 599.903C279.102 599.903 278.463 600.102 277.952 600.5C277.44 600.898 277.054 601.44 276.792 602.128C276.537 602.815 276.409 603.591 276.409 604.455C276.409 605.33 276.54 606.116 276.801 606.815C277.062 607.514 277.449 608.068 277.96 608.477C278.477 608.881 279.114 609.082 279.869 609.082Z" fill="black" fill-opacity="0.8"/>
<circle cx="170" cy="405" r="88" fill="#FFC7C2" stroke="#FF735E" stroke-width="4" stroke-linecap="round"/>
<path d="M133.788 402.222H131.129C131.027 401.653 130.836 401.153 130.558 400.722C130.28 400.29 129.939 399.923 129.535 399.622C129.132 399.321 128.68 399.094 128.18 398.94C127.686 398.787 127.16 398.71 126.603 398.71C125.598 398.71 124.697 398.963 123.902 399.469C123.112 399.974 122.487 400.716 122.027 401.693C121.572 402.67 121.345 403.864 121.345 405.273C121.345 406.693 121.572 407.892 122.027 408.869C122.487 409.847 123.115 410.585 123.91 411.085C124.706 411.585 125.601 411.835 126.595 411.835C127.146 411.835 127.669 411.761 128.163 411.614C128.663 411.46 129.115 411.236 129.518 410.94C129.922 410.645 130.263 410.284 130.541 409.858C130.825 409.426 131.021 408.932 131.129 408.375L133.788 408.384C133.646 409.241 133.371 410.031 132.961 410.753C132.558 411.469 132.038 412.088 131.402 412.611C130.771 413.128 130.049 413.528 129.237 413.812C128.424 414.097 127.538 414.239 126.578 414.239C125.067 414.239 123.72 413.881 122.538 413.165C121.356 412.443 120.424 411.412 119.743 410.071C119.067 408.73 118.728 407.131 118.728 405.273C118.728 403.409 119.069 401.81 119.751 400.474C120.433 399.134 121.365 398.105 122.547 397.389C123.728 396.668 125.072 396.307 126.578 396.307C127.504 396.307 128.368 396.44 129.169 396.707C129.976 396.969 130.7 397.355 131.342 397.866C131.984 398.372 132.515 398.991 132.936 399.724C133.356 400.452 133.64 401.284 133.788 402.222ZM140.089 414.29C139.259 414.29 138.509 414.136 137.839 413.83C137.168 413.517 136.637 413.065 136.245 412.474C135.858 411.884 135.665 411.159 135.665 410.301C135.665 409.562 135.807 408.955 136.091 408.477C136.375 408 136.759 407.622 137.242 407.344C137.725 407.065 138.265 406.855 138.861 406.713C139.458 406.571 140.066 406.463 140.685 406.389C141.469 406.298 142.106 406.224 142.594 406.168C143.083 406.105 143.438 406.006 143.66 405.869C143.881 405.733 143.992 405.511 143.992 405.205V405.145C143.992 404.401 143.782 403.824 143.361 403.415C142.946 403.006 142.327 402.801 141.503 402.801C140.645 402.801 139.969 402.991 139.475 403.372C138.986 403.747 138.648 404.165 138.461 404.625L136.066 404.08C136.35 403.284 136.765 402.642 137.31 402.153C137.861 401.659 138.495 401.301 139.211 401.08C139.927 400.852 140.679 400.739 141.469 400.739C141.992 400.739 142.546 400.801 143.131 400.926C143.722 401.045 144.273 401.267 144.785 401.591C145.302 401.915 145.725 402.378 146.054 402.98C146.384 403.577 146.549 404.352 146.549 405.307V414H144.06V412.21H143.958C143.793 412.54 143.546 412.864 143.216 413.182C142.887 413.5 142.464 413.764 141.946 413.974C141.429 414.185 140.81 414.29 140.089 414.29ZM140.642 412.244C141.347 412.244 141.949 412.105 142.449 411.827C142.955 411.548 143.339 411.185 143.6 410.736C143.867 410.281 144 409.795 144 409.278V407.591C143.91 407.682 143.733 407.767 143.472 407.847C143.216 407.92 142.924 407.986 142.594 408.043C142.265 408.094 141.944 408.142 141.631 408.188C141.319 408.227 141.057 408.261 140.847 408.29C140.353 408.352 139.901 408.457 139.492 408.605C139.089 408.753 138.765 408.966 138.52 409.244C138.282 409.517 138.162 409.881 138.162 410.335C138.162 410.966 138.395 411.443 138.861 411.767C139.327 412.085 139.921 412.244 140.642 412.244ZM152.035 406.227V414H149.487V400.909H151.933V403.04H152.095C152.396 402.347 152.868 401.79 153.51 401.369C154.157 400.949 154.973 400.739 155.956 400.739C156.848 400.739 157.629 400.926 158.299 401.301C158.97 401.67 159.49 402.222 159.859 402.955C160.228 403.687 160.413 404.594 160.413 405.673V414H157.865V405.98C157.865 405.031 157.618 404.29 157.123 403.756C156.629 403.216 155.95 402.946 155.086 402.946C154.495 402.946 153.97 403.074 153.51 403.33C153.055 403.585 152.694 403.96 152.427 404.455C152.166 404.943 152.035 405.534 152.035 406.227ZM168.889 414.264C167.622 414.264 166.531 413.977 165.616 413.403C164.707 412.824 164.008 412.026 163.52 411.009C163.031 409.991 162.787 408.827 162.787 407.514C162.787 406.185 163.037 405.011 163.537 403.994C164.037 402.972 164.741 402.173 165.65 401.599C166.559 401.026 167.63 400.739 168.863 400.739C169.858 400.739 170.744 400.923 171.522 401.293C172.301 401.656 172.929 402.168 173.406 402.827C173.889 403.486 174.176 404.256 174.267 405.136H171.787C171.65 404.523 171.338 403.994 170.849 403.551C170.366 403.108 169.718 402.886 168.906 402.886C168.196 402.886 167.574 403.074 167.039 403.449C166.511 403.818 166.099 404.347 165.804 405.034C165.508 405.716 165.36 406.523 165.36 407.455C165.36 408.409 165.505 409.233 165.795 409.926C166.085 410.619 166.494 411.156 167.022 411.537C167.556 411.918 168.184 412.108 168.906 412.108C169.389 412.108 169.826 412.02 170.218 411.844C170.616 411.662 170.949 411.403 171.216 411.068C171.488 410.733 171.679 410.33 171.787 409.858H174.267C174.176 410.705 173.9 411.46 173.44 412.125C172.98 412.79 172.363 413.312 171.591 413.693C170.824 414.074 169.923 414.264 168.889 414.264ZM182.178 414.264C180.888 414.264 179.777 413.989 178.846 413.438C177.919 412.881 177.203 412.099 176.698 411.094C176.198 410.082 175.948 408.898 175.948 407.54C175.948 406.199 176.198 405.017 176.698 403.994C177.203 402.972 177.908 402.173 178.811 401.599C179.721 401.026 180.783 400.739 181.999 400.739C182.738 400.739 183.453 400.861 184.147 401.105C184.84 401.349 185.462 401.733 186.013 402.256C186.564 402.778 186.999 403.457 187.317 404.293C187.635 405.122 187.794 406.131 187.794 407.318V408.222H177.388V406.312H185.297C185.297 405.642 185.161 405.048 184.888 404.531C184.615 404.009 184.232 403.597 183.738 403.295C183.249 402.994 182.675 402.844 182.016 402.844C181.3 402.844 180.675 403.02 180.141 403.372C179.613 403.719 179.203 404.173 178.914 404.736C178.63 405.293 178.488 405.898 178.488 406.551V408.043C178.488 408.918 178.641 409.662 178.948 410.276C179.26 410.889 179.695 411.358 180.252 411.682C180.809 412 181.459 412.159 182.203 412.159C182.686 412.159 183.127 412.091 183.524 411.955C183.922 411.812 184.266 411.602 184.556 411.324C184.846 411.045 185.067 410.702 185.221 410.293L187.632 410.727C187.439 411.437 187.093 412.06 186.593 412.594C186.098 413.122 185.476 413.534 184.726 413.83C183.982 414.119 183.132 414.264 182.178 414.264ZM192.714 396.545V414H190.166V396.545H192.714ZM201.328 414.264C200.039 414.264 198.928 413.989 197.996 413.438C197.07 412.881 196.354 412.099 195.848 411.094C195.348 410.082 195.098 408.898 195.098 407.54C195.098 406.199 195.348 405.017 195.848 403.994C196.354 402.972 197.059 402.173 197.962 401.599C198.871 401.026 199.934 400.739 201.149 400.739C201.888 400.739 202.604 400.861 203.297 401.105C203.99 401.349 204.612 401.733 205.164 402.256C205.715 402.778 206.149 403.457 206.468 404.293C206.786 405.122 206.945 406.131 206.945 407.318V408.222H196.539V406.312H204.448C204.448 405.642 204.311 405.048 204.039 404.531C203.766 404.009 203.382 403.597 202.888 403.295C202.399 402.994 201.826 402.844 201.166 402.844C200.451 402.844 199.826 403.02 199.291 403.372C198.763 403.719 198.354 404.173 198.064 404.736C197.78 405.293 197.638 405.898 197.638 406.551V408.043C197.638 408.918 197.791 409.662 198.098 410.276C198.411 410.889 198.845 411.358 199.402 411.682C199.959 412 200.61 412.159 201.354 412.159C201.837 412.159 202.277 412.091 202.675 411.955C203.073 411.812 203.416 411.602 203.706 411.324C203.996 411.045 204.218 410.702 204.371 410.293L206.783 410.727C206.59 411.437 206.243 412.06 205.743 412.594C205.249 413.122 204.627 413.534 203.877 413.83C203.132 414.119 202.283 414.264 201.328 414.264ZM214.217 414.256C213.16 414.256 212.217 413.986 211.387 413.446C210.563 412.901 209.916 412.125 209.444 411.119C208.978 410.108 208.745 408.895 208.745 407.48C208.745 406.065 208.981 404.855 209.453 403.849C209.93 402.844 210.583 402.074 211.413 401.54C212.242 401.006 213.183 400.739 214.234 400.739C215.046 400.739 215.7 400.875 216.194 401.148C216.694 401.415 217.08 401.727 217.353 402.085C217.632 402.443 217.848 402.759 218.001 403.031H218.154V396.545H220.703V414H218.214V411.963H218.001C217.848 412.241 217.626 412.56 217.336 412.918C217.052 413.276 216.66 413.588 216.16 413.855C215.66 414.122 215.012 414.256 214.217 414.256ZM214.779 412.082C215.512 412.082 216.132 411.889 216.637 411.503C217.149 411.111 217.535 410.568 217.796 409.875C218.063 409.182 218.197 408.375 218.197 407.455C218.197 406.545 218.066 405.75 217.805 405.068C217.544 404.386 217.16 403.855 216.654 403.474C216.149 403.094 215.524 402.903 214.779 402.903C214.012 402.903 213.373 403.102 212.862 403.5C212.35 403.898 211.964 404.44 211.703 405.128C211.447 405.815 211.319 406.591 211.319 407.455C211.319 408.33 211.45 409.116 211.711 409.815C211.973 410.514 212.359 411.068 212.87 411.477C213.387 411.881 214.024 412.082 214.779 412.082Z" fill="black" fill-opacity="0.8"/>
<path d="M322.845 184.033C321.773 184.297 321.118 185.381 321.382 186.454C321.647 187.526 322.731 188.181 323.803 187.917L322.845 184.033ZM365.387 177.06C365.958 176.115 365.655 174.885 364.709 174.314L349.305 165.003C348.359 164.432 347.13 164.735 346.558 165.68C345.987 166.626 346.29 167.855 347.236 168.426L360.929 176.703L352.653 190.396C352.081 191.341 352.384 192.571 353.33 193.142C354.275 193.713 355.505 193.41 356.076 192.465L365.387 177.06ZM323.803 187.917L364.154 177.967L363.196 174.084L322.845 184.033L323.803 187.917Z" fill="#757575"/>
<path d="M544.163 166.543C543.073 166.368 542.047 167.111 541.873 168.202C541.698 169.293 542.441 170.318 543.532 170.493L544.163 166.543ZM582.327 176.099C583.221 175.451 583.421 174.201 582.773 173.306L572.213 158.729C571.565 157.835 570.315 157.635 569.42 158.283C568.526 158.931 568.326 160.181 568.974 161.076L578.36 174.033L565.403 183.42C564.508 184.068 564.309 185.318 564.957 186.213C565.605 187.107 566.855 187.307 567.75 186.659L582.327 176.099ZM543.532 170.493L580.838 176.455L581.469 172.505L544.163 166.543L543.532 170.493Z" fill="#757575"/>
<path d="M700.054 276.641C699.741 275.582 698.628 274.978 697.569 275.291C696.509 275.605 695.905 276.718 696.219 277.777L700.054 276.641ZM708.91 318.548C709.881 319.075 711.095 318.715 711.622 317.744L720.21 301.925C720.737 300.954 720.377 299.74 719.406 299.213C718.436 298.686 717.221 299.046 716.694 300.017L709.061 314.078L694.999 306.445C694.029 305.918 692.814 306.278 692.287 307.248C691.76 308.219 692.12 309.433 693.091 309.96L708.91 318.548ZM696.219 277.777L707.947 317.358L711.782 316.222L700.054 276.641L696.219 277.777Z" fill="#757575"/>
<path d="M709.476 493.116C709.817 492.065 709.243 490.937 708.192 490.596C707.141 490.255 706.013 490.83 705.672 491.88L709.476 493.116ZM698.644 515.409C699.145 516.393 700.35 516.785 701.334 516.283L717.372 508.111C718.356 507.609 718.747 506.405 718.246 505.421C717.744 504.437 716.54 504.045 715.555 504.547L701.3 511.811L694.035 497.555C693.534 496.571 692.329 496.18 691.345 496.682C690.361 497.183 689.97 498.387 690.471 499.372L698.644 515.409ZM705.672 491.88L698.524 513.883L702.328 515.119L709.476 493.116L705.672 491.88Z" fill="#757575"/>
<path d="M583.154 625.967C584.226 625.703 584.881 624.619 584.617 623.547C584.352 622.474 583.269 621.819 582.196 622.084L583.154 625.967ZM540.613 632.94C540.041 633.886 540.344 635.115 541.29 635.687L556.695 644.997C557.64 645.569 558.869 645.265 559.441 644.32C560.012 643.375 559.709 642.145 558.764 641.574L545.07 633.298L553.347 619.604C553.918 618.659 553.615 617.43 552.669 616.858C551.724 616.287 550.495 616.59 549.923 617.535L540.613 632.94ZM582.196 622.084L541.845 632.033L542.803 635.917L583.154 625.967L582.196 622.084Z" fill="#757575"/>
<path d="M363.196 635.917C364.269 636.181 365.352 635.526 365.617 634.454C365.881 633.381 365.226 632.297 364.154 632.033L363.196 635.917ZM322.29 622.314C321.344 622.885 321.041 624.115 321.613 625.06L330.923 640.465C331.495 641.41 332.724 641.713 333.669 641.142C334.615 640.571 334.918 639.341 334.347 638.396L326.07 624.703L339.764 616.426C340.709 615.855 341.012 614.626 340.441 613.68C339.869 612.735 338.64 612.432 337.695 613.003L322.29 622.314ZM364.154 632.033L323.803 622.084L322.845 625.967L363.196 635.917L364.154 632.033Z" fill="#757575"/>
<path d="M203.672 515.119C204.013 516.17 205.141 516.745 206.192 516.403C207.243 516.062 207.817 514.934 207.476 513.883L203.672 515.119ZM199.334 490.716C198.35 490.215 197.145 490.606 196.644 491.59L188.471 507.628C187.97 508.612 188.361 509.816 189.345 510.318C190.329 510.819 191.534 510.428 192.035 509.444L199.3 495.188L213.555 502.453C214.54 502.954 215.744 502.563 216.246 501.579C216.747 500.594 216.356 499.39 215.372 498.889L199.334 490.716ZM207.476 513.883L200.328 491.88L196.524 493.116L203.672 515.119L207.476 513.883Z" fill="#757575"/>
<path d="M196.524 316.883C196.182 317.934 196.757 319.062 197.808 319.403C198.858 319.745 199.987 319.17 200.328 318.119L196.524 316.883ZM207.356 294.59C206.855 293.606 205.65 293.215 204.666 293.716L188.628 301.889C187.644 302.39 187.253 303.594 187.754 304.579C188.256 305.563 189.46 305.954 190.444 305.453L204.7 298.188L211.965 312.444C212.466 313.428 213.67 313.819 214.655 313.318C215.639 312.816 216.03 311.612 215.529 310.628L207.356 294.59ZM200.328 318.119L207.476 296.116L203.672 294.88L196.524 316.883L200.328 318.119Z" fill="#757575"/>
</svg>
